<svg width="900" height="640" viewBox="0 0 900 640" fill="none" xmlns="http://www.w3.org/2000/svg">
<rect y="460" width="654.817" height="180" fill="#C4C4C4"/>
<rect x="0.5" y="460.5" width="899" height="179" stroke="black" stroke-dasharray="5 5"/>
<path d="M734.404 555.954H732.716V543.158H734.404V555.954ZM736.812 551.112C736.812 550.18 736.994 549.342 737.357 548.598C737.726 547.854 738.236 547.28 738.886 546.875C739.542 546.471 740.289 546.269 741.127 546.269C742.422 546.269 743.468 546.717 744.265 547.614C745.068 548.51 745.469 549.702 745.469 551.191V551.305C745.469 552.231 745.29 553.063 744.933 553.801C744.581 554.534 744.075 555.105 743.413 555.515C742.756 555.925 742 556.13 741.145 556.13C739.856 556.13 738.81 555.682 738.007 554.785C737.21 553.889 736.812 552.702 736.812 551.226V551.112ZM738.447 551.305C738.447 552.36 738.69 553.206 739.176 553.845C739.668 554.484 740.325 554.803 741.145 554.803C741.971 554.803 742.627 554.481 743.114 553.836C743.6 553.186 743.843 552.278 743.843 551.112C743.843 550.069 743.594 549.225 743.096 548.58C742.604 547.93 741.948 547.605 741.127 547.605C740.325 547.605 739.677 547.924 739.185 548.563C738.693 549.201 738.447 550.116 738.447 551.305ZM756.605 544.546H752.492V555.954H750.813V544.546H746.708V543.158H756.605V544.546ZM762.617 555.954V543.158H766.229C767.342 543.158 768.327 543.404 769.182 543.896C770.038 544.388 770.697 545.088 771.16 545.996C771.628 546.905 771.866 547.948 771.872 549.125V549.943C771.872 551.15 771.637 552.207 771.168 553.116C770.705 554.024 770.04 554.721 769.173 555.207C768.312 555.694 767.307 555.943 766.159 555.954H762.617ZM764.304 544.546V554.575H766.08C767.38 554.575 768.391 554.17 769.112 553.362C769.838 552.553 770.202 551.402 770.202 549.908V549.16C770.202 547.707 769.859 546.579 769.173 545.777C768.494 544.968 767.527 544.558 766.273 544.546H764.304ZM778.121 556.13C776.831 556.13 775.783 555.708 774.974 554.865C774.165 554.015 773.761 552.881 773.761 551.463V551.164C773.761 550.221 773.94 549.38 774.297 548.642C774.661 547.898 775.164 547.318 775.809 546.902C776.459 546.48 777.163 546.269 777.918 546.269C779.155 546.269 780.116 546.676 780.801 547.491C781.487 548.305 781.83 549.471 781.83 550.989V551.665H775.387C775.411 552.603 775.683 553.362 776.205 553.942C776.732 554.516 777.4 554.803 778.208 554.803C778.783 554.803 779.269 554.686 779.667 554.451C780.066 554.217 780.414 553.907 780.713 553.52L781.706 554.293C780.91 555.518 779.714 556.13 778.121 556.13ZM777.918 547.605C777.262 547.605 776.711 547.845 776.266 548.326C775.821 548.8 775.545 549.468 775.44 550.329H780.204V550.206C780.157 549.38 779.934 548.742 779.536 548.29C779.137 547.833 778.598 547.605 777.918 547.605ZM786.734 553.748L789.089 546.445H790.75L787.34 555.954H786.101L782.656 546.445H784.317L786.734 553.748ZM794.081 555.954H792.456V546.445H794.081V555.954ZM792.324 543.922C792.324 543.659 792.403 543.436 792.561 543.254C792.725 543.073 792.965 542.982 793.282 542.982C793.598 542.982 793.838 543.073 794.002 543.254C794.166 543.436 794.248 543.659 794.248 543.922C794.248 544.186 794.166 544.406 794.002 544.581C793.838 544.757 793.598 544.845 793.282 544.845C792.965 544.845 792.725 544.757 792.561 544.581C792.403 544.406 792.324 544.186 792.324 543.922ZM800.506 554.803C801.086 554.803 801.593 554.627 802.027 554.276C802.46 553.924 802.701 553.485 802.747 552.957H804.286C804.256 553.502 804.069 554.021 803.723 554.513C803.377 555.005 802.914 555.398 802.334 555.691C801.76 555.984 801.151 556.13 800.506 556.13C799.211 556.13 798.18 555.7 797.413 554.838C796.651 553.971 796.27 552.787 796.27 551.287V551.015C796.27 550.089 796.44 549.266 796.78 548.545C797.12 547.825 797.606 547.265 798.239 546.867C798.877 546.468 799.63 546.269 800.497 546.269C801.564 546.269 802.449 546.588 803.152 547.227C803.861 547.866 804.239 548.695 804.286 549.714H802.747C802.701 549.099 802.466 548.595 802.044 548.202C801.628 547.804 801.113 547.605 800.497 547.605C799.671 547.605 799.03 547.904 798.573 548.501C798.122 549.093 797.896 549.951 797.896 551.076V551.384C797.896 552.48 798.122 553.324 798.573 553.915C799.024 554.507 799.668 554.803 800.506 554.803ZM810.06 556.13C808.771 556.13 807.722 555.708 806.914 554.865C806.105 554.015 805.701 552.881 805.701 551.463V551.164C805.701 550.221 805.879 549.38 806.237 548.642C806.6 547.898 807.104 547.318 807.748 546.902C808.399 546.48 809.102 546.269 809.858 546.269C811.094 546.269 812.055 546.676 812.741 547.491C813.426 548.305 813.769 549.471 813.769 550.989V551.665H807.327C807.35 552.603 807.622 553.362 808.144 553.942C808.671 554.516 809.339 554.803 810.148 554.803C810.722 554.803 811.208 554.686 811.607 554.451C812.005 554.217 812.354 553.907 812.653 553.52L813.646 554.293C812.849 555.518 811.654 556.13 810.06 556.13ZM809.858 547.605C809.202 547.605 808.651 547.845 808.206 548.326C807.76 548.8 807.485 549.468 807.379 550.329H812.143V550.206C812.096 549.38 811.873 548.742 811.475 548.29C811.077 547.833 810.538 547.605 809.858 547.605ZM821.196 553.432C821.196 552.992 821.029 552.653 820.695 552.412C820.367 552.166 819.789 551.955 818.963 551.78C818.143 551.604 817.49 551.393 817.003 551.147C816.523 550.901 816.165 550.608 815.931 550.268C815.703 549.928 815.588 549.524 815.588 549.055C815.588 548.276 815.916 547.617 816.573 547.077C817.235 546.538 818.079 546.269 819.104 546.269C820.182 546.269 821.055 546.547 821.723 547.104C822.397 547.66 822.734 548.372 822.734 549.24H821.099C821.099 548.794 820.909 548.41 820.528 548.088C820.153 547.766 819.678 547.605 819.104 547.605C818.512 547.605 818.049 547.734 817.715 547.992C817.381 548.249 817.214 548.586 817.214 549.002C817.214 549.395 817.37 549.691 817.68 549.89C817.991 550.089 818.55 550.28 819.359 550.461C820.173 550.643 820.832 550.86 821.336 551.112C821.84 551.364 822.212 551.668 822.453 552.026C822.699 552.377 822.822 552.808 822.822 553.318C822.822 554.167 822.482 554.85 821.802 555.366C821.122 555.875 820.241 556.13 819.157 556.13C818.395 556.13 817.721 555.995 817.135 555.726C816.549 555.456 816.089 555.081 815.755 554.601C815.427 554.115 815.263 553.59 815.263 553.028H816.889C816.918 553.573 817.135 554.006 817.539 554.328C817.95 554.645 818.489 554.803 819.157 554.803C819.772 554.803 820.264 554.68 820.633 554.434C821.008 554.182 821.196 553.848 821.196 553.432Z" fill="black"/>
<rect x="34" y="520" width="150" height="60" fill="#003C7E"/>
<path d="M86.3506 550.296C84.9033 549.88 83.8486 549.37 83.1865 548.767C82.5303 548.157 82.2021 547.407 82.2021 546.517C82.2021 545.509 82.6035 544.677 83.4062 544.021C84.2148 543.358 85.2637 543.027 86.5527 543.027C87.4316 543.027 88.2139 543.197 88.8994 543.537C89.5908 543.877 90.124 544.346 90.499 544.943C90.8799 545.541 91.0703 546.194 91.0703 546.903H89.374C89.374 546.13 89.1279 545.523 88.6357 545.084C88.1436 544.639 87.4492 544.416 86.5527 544.416C85.7207 544.416 85.0703 544.601 84.6016 544.97C84.1387 545.333 83.9072 545.84 83.9072 546.49C83.9072 547.012 84.127 547.454 84.5664 547.817C85.0117 548.175 85.7646 548.503 86.8252 548.802C87.8916 549.101 88.7236 549.432 89.3213 549.795C89.9248 550.152 90.3701 550.571 90.6572 551.052C90.9502 551.532 91.0967 552.098 91.0967 552.748C91.0967 553.785 90.6924 554.617 89.8838 555.244C89.0752 555.865 87.9941 556.176 86.6406 556.176C85.7617 556.176 84.9414 556.009 84.1797 555.675C83.418 555.335 82.8291 554.872 82.4131 554.286C82.0029 553.7 81.7979 553.035 81.7979 552.291H83.4941C83.4941 553.064 83.7783 553.677 84.3467 554.128C84.9209 554.573 85.6855 554.796 86.6406 554.796C87.5312 554.796 88.2139 554.614 88.6885 554.251C89.1631 553.888 89.4004 553.393 89.4004 552.766C89.4004 552.139 89.1807 551.655 88.7412 551.315C88.3018 550.97 87.5049 550.63 86.3506 550.296ZM96.959 556.176C95.6699 556.176 94.6211 555.754 93.8125 554.91C93.0039 554.061 92.5996 552.927 92.5996 551.509V551.21C92.5996 550.267 92.7783 549.426 93.1357 548.688C93.499 547.943 94.0029 547.363 94.6475 546.947C95.2979 546.525 96.001 546.314 96.7568 546.314C97.9932 546.314 98.9541 546.722 99.6396 547.536C100.325 548.351 100.668 549.517 100.668 551.034V551.711H94.2256C94.249 552.648 94.5215 553.407 95.043 553.987C95.5703 554.562 96.2383 554.849 97.0469 554.849C97.6211 554.849 98.1074 554.731 98.5059 554.497C98.9043 554.263 99.2529 553.952 99.5518 553.565L100.545 554.339C99.748 555.563 98.5527 556.176 96.959 556.176ZM96.7568 547.65C96.1006 547.65 95.5498 547.891 95.1045 548.371C94.6592 548.846 94.3838 549.514 94.2783 550.375H99.042V550.252C98.9951 549.426 98.7725 548.787 98.374 548.336C97.9756 547.879 97.4365 547.65 96.7568 547.65ZM104.096 546.49L104.148 547.686C104.875 546.771 105.824 546.314 106.996 546.314C109.006 546.314 110.02 547.448 110.037 549.716V556H108.411V549.707C108.405 549.021 108.247 548.515 107.937 548.187C107.632 547.858 107.154 547.694 106.504 547.694C105.977 547.694 105.514 547.835 105.115 548.116C104.717 548.397 104.406 548.767 104.184 549.224V556H102.558V546.49H104.096ZM118.026 553.478C118.026 553.038 117.859 552.698 117.525 552.458C117.197 552.212 116.62 552.001 115.794 551.825C114.974 551.649 114.32 551.438 113.834 551.192C113.354 550.946 112.996 550.653 112.762 550.313C112.533 549.974 112.419 549.569 112.419 549.101C112.419 548.321 112.747 547.662 113.403 547.123C114.065 546.584 114.909 546.314 115.935 546.314C117.013 546.314 117.886 546.593 118.554 547.149C119.228 547.706 119.564 548.418 119.564 549.285H117.93C117.93 548.84 117.739 548.456 117.358 548.134C116.983 547.812 116.509 547.65 115.935 547.65C115.343 547.65 114.88 547.779 114.546 548.037C114.212 548.295 114.045 548.632 114.045 549.048C114.045 549.44 114.2 549.736 114.511 549.936C114.821 550.135 115.381 550.325 116.189 550.507C117.004 550.688 117.663 550.905 118.167 551.157C118.671 551.409 119.043 551.714 119.283 552.071C119.529 552.423 119.652 552.854 119.652 553.363C119.652 554.213 119.312 554.896 118.633 555.411C117.953 555.921 117.071 556.176 115.987 556.176C115.226 556.176 114.552 556.041 113.966 555.771C113.38 555.502 112.92 555.127 112.586 554.646C112.258 554.16 112.094 553.636 112.094 553.073H113.72C113.749 553.618 113.966 554.052 114.37 554.374C114.78 554.69 115.319 554.849 115.987 554.849C116.603 554.849 117.095 554.726 117.464 554.479C117.839 554.228 118.026 553.894 118.026 553.478ZM121.34 551.157C121.34 550.226 121.521 549.388 121.885 548.644C122.254 547.899 122.764 547.325 123.414 546.921C124.07 546.517 124.817 546.314 125.655 546.314C126.95 546.314 127.996 546.763 128.793 547.659C129.596 548.556 129.997 549.748 129.997 551.236V551.351C129.997 552.276 129.818 553.108 129.461 553.847C129.109 554.579 128.603 555.15 127.94 555.561C127.284 555.971 126.528 556.176 125.673 556.176C124.384 556.176 123.338 555.728 122.535 554.831C121.738 553.935 121.34 552.748 121.34 551.271V551.157ZM122.975 551.351C122.975 552.405 123.218 553.252 123.704 553.891C124.196 554.529 124.853 554.849 125.673 554.849C126.499 554.849 127.155 554.526 127.642 553.882C128.128 553.231 128.371 552.323 128.371 551.157C128.371 550.114 128.122 549.271 127.624 548.626C127.132 547.976 126.476 547.65 125.655 547.65C124.853 547.65 124.205 547.97 123.713 548.608C123.221 549.247 122.975 550.161 122.975 551.351ZM136.633 547.949C136.387 547.908 136.12 547.888 135.833 547.888C134.767 547.888 134.043 548.342 133.662 549.25V556H132.036V546.49H133.618L133.645 547.589C134.178 546.739 134.934 546.314 135.912 546.314C136.229 546.314 136.469 546.355 136.633 546.438V547.949Z" fill="white"/>
<rect x="252" y="520" width="150" height="60" fill="#003C7E"/>
<path d="M306.706 551.939C306.548 553.293 306.047 554.339 305.203 555.077C304.365 555.81 303.249 556.176 301.854 556.176C300.343 556.176 299.13 555.634 298.216 554.55C297.308 553.466 296.854 552.016 296.854 550.199V548.969C296.854 547.779 297.064 546.733 297.486 545.831C297.914 544.929 298.518 544.237 299.297 543.757C300.076 543.271 300.979 543.027 302.004 543.027C303.363 543.027 304.453 543.408 305.273 544.17C306.094 544.926 306.571 545.975 306.706 547.316H305.01C304.863 546.297 304.544 545.559 304.052 545.102C303.565 544.645 302.883 544.416 302.004 544.416C300.926 544.416 300.079 544.814 299.464 545.611C298.854 546.408 298.55 547.542 298.55 549.013V550.252C298.55 551.641 298.84 552.745 299.42 553.565C300 554.386 300.812 554.796 301.854 554.796C302.792 554.796 303.51 554.585 304.008 554.163C304.512 553.735 304.846 552.994 305.01 551.939H306.706ZM314.634 556C314.54 555.812 314.464 555.479 314.405 554.998C313.649 555.783 312.747 556.176 311.698 556.176C310.761 556.176 309.99 555.912 309.387 555.385C308.789 554.852 308.49 554.178 308.49 553.363C308.49 552.373 308.865 551.605 309.615 551.061C310.371 550.51 311.432 550.234 312.797 550.234H314.379V549.487C314.379 548.919 314.209 548.468 313.869 548.134C313.529 547.794 313.028 547.624 312.366 547.624C311.786 547.624 311.3 547.771 310.907 548.063C310.515 548.356 310.318 548.711 310.318 549.127H308.684C308.684 548.652 308.851 548.195 309.185 547.756C309.524 547.311 309.981 546.959 310.556 546.701C311.136 546.443 311.771 546.314 312.463 546.314C313.559 546.314 314.417 546.59 315.038 547.141C315.659 547.686 315.981 548.438 316.005 549.399V553.776C316.005 554.649 316.116 555.344 316.339 555.859V556H314.634ZM311.936 554.761C312.445 554.761 312.929 554.629 313.386 554.365C313.843 554.102 314.174 553.759 314.379 553.337V551.386H313.104C311.112 551.386 310.116 551.969 310.116 553.135C310.116 553.645 310.286 554.043 310.626 554.33C310.966 554.617 311.402 554.761 311.936 554.761ZM320.083 546.49L320.127 547.545C320.824 546.725 321.765 546.314 322.948 546.314C324.278 546.314 325.184 546.824 325.664 547.844C325.98 547.387 326.391 547.018 326.895 546.736C327.404 546.455 328.005 546.314 328.696 546.314C330.782 546.314 331.843 547.419 331.878 549.628V556H330.252V549.725C330.252 549.045 330.097 548.538 329.786 548.204C329.476 547.864 328.954 547.694 328.222 547.694C327.618 547.694 327.117 547.876 326.719 548.239C326.32 548.597 326.089 549.08 326.024 549.689V556H324.39V549.769C324.39 548.386 323.713 547.694 322.359 547.694C321.293 547.694 320.563 548.148 320.171 549.057V556H318.545V546.49H320.083ZM338.285 556.176C336.996 556.176 335.947 555.754 335.139 554.91C334.33 554.061 333.926 552.927 333.926 551.509V551.21C333.926 550.267 334.104 549.426 334.462 548.688C334.825 547.943 335.329 547.363 335.974 546.947C336.624 546.525 337.327 546.314 338.083 546.314C339.319 546.314 340.28 546.722 340.966 547.536C341.651 548.351 341.994 549.517 341.994 551.034V551.711H335.552C335.575 552.648 335.848 553.407 336.369 553.987C336.896 554.562 337.564 554.849 338.373 554.849C338.947 554.849 339.434 554.731 339.832 554.497C340.23 554.263 340.579 553.952 340.878 553.565L341.871 554.339C341.074 555.563 339.879 556.176 338.285 556.176ZM338.083 547.65C337.427 547.65 336.876 547.891 336.431 548.371C335.985 548.846 335.71 549.514 335.604 550.375H340.368V550.252C340.321 549.426 340.099 548.787 339.7 548.336C339.302 547.879 338.763 547.65 338.083 547.65ZM348.48 547.949C348.234 547.908 347.968 547.888 347.681 547.888C346.614 547.888 345.891 548.342 345.51 549.25V556H343.884V546.49H345.466L345.492 547.589C346.025 546.739 346.781 546.314 347.76 546.314C348.076 546.314 348.316 546.355 348.48 546.438V547.949ZM355.503 556C355.409 555.812 355.333 555.479 355.274 554.998C354.519 555.783 353.616 556.176 352.567 556.176C351.63 556.176 350.859 555.912 350.256 555.385C349.658 554.852 349.359 554.178 349.359 553.363C349.359 552.373 349.734 551.605 350.484 551.061C351.24 550.51 352.301 550.234 353.666 550.234H355.248V549.487C355.248 548.919 355.078 548.468 354.738 548.134C354.398 547.794 353.897 547.624 353.235 547.624C352.655 547.624 352.169 547.771 351.776 548.063C351.384 548.356 351.188 548.711 351.188 549.127H349.553C349.553 548.652 349.72 548.195 350.054 547.756C350.394 547.311 350.851 546.959 351.425 546.701C352.005 546.443 352.641 546.314 353.332 546.314C354.428 546.314 355.286 546.59 355.907 547.141C356.528 547.686 356.851 548.438 356.874 549.399V553.776C356.874 554.649 356.985 555.344 357.208 555.859V556H355.503ZM352.805 554.761C353.314 554.761 353.798 554.629 354.255 554.365C354.712 554.102 355.043 553.759 355.248 553.337V551.386H353.974C351.981 551.386 350.985 551.969 350.985 553.135C350.985 553.645 351.155 554.043 351.495 554.33C351.835 554.617 352.271 554.761 352.805 554.761Z" fill="white"/>
<rect x="470" y="520" width="150" height="60" fill="#003C7E"/>
<path d="M539.146 555.147C539.146 554.866 539.229 554.632 539.393 554.444C539.562 554.257 539.814 554.163 540.148 554.163C540.482 554.163 540.734 554.257 540.904 554.444C541.08 554.632 541.168 554.866 541.168 555.147C541.168 555.417 541.08 555.643 540.904 555.824C540.734 556.006 540.482 556.097 540.148 556.097C539.814 556.097 539.562 556.006 539.393 555.824C539.229 555.643 539.146 555.417 539.146 555.147ZM543.893 555.147C543.893 554.866 543.975 554.632 544.139 554.444C544.309 554.257 544.561 554.163 544.895 554.163C545.229 554.163 545.48 554.257 545.65 554.444C545.826 554.632 545.914 554.866 545.914 555.147C545.914 555.417 545.826 555.643 545.65 555.824C545.48 556.006 545.229 556.097 544.895 556.097C544.561 556.097 544.309 556.006 544.139 555.824C543.975 555.643 543.893 555.417 543.893 555.147ZM548.639 555.147C548.639 554.866 548.721 554.632 548.885 554.444C549.055 554.257 549.307 554.163 549.641 554.163C549.975 554.163 550.227 554.257 550.396 554.444C550.572 554.632 550.66 554.866 550.66 555.147C550.66 555.417 550.572 555.643 550.396 555.824C550.227 556.006 549.975 556.097 549.641 556.097C549.307 556.097 549.055 556.006 548.885 555.824C548.721 555.643 548.639 555.417 548.639 555.147Z" fill="white"/>
<rect y="230" width="654.817" height="180" fill="#C4C4C4"/>
<rect x="0.5" y="230.5" width="899" height="179" stroke="black" stroke-dasharray="5 5"/>
<path d="M766.194 320.039H760.648V324.575H767.09V325.954H758.96V313.158H767.002V314.546H760.648V318.659H766.194V320.039ZM768.365 321.12C768.365 319.661 768.71 318.49 769.402 317.605C770.093 316.714 770.998 316.269 772.118 316.269C773.231 316.269 774.113 316.65 774.763 317.411V312.454H776.389V325.954H774.895L774.816 324.935C774.165 325.732 773.26 326.13 772.1 326.13C770.998 326.13 770.099 325.679 769.402 324.777C768.71 323.874 768.365 322.697 768.365 321.243V321.12ZM769.991 321.305C769.991 322.383 770.213 323.227 770.659 323.836C771.104 324.446 771.719 324.75 772.504 324.75C773.536 324.75 774.289 324.287 774.763 323.362V318.993C774.277 318.097 773.53 317.649 772.522 317.649C771.725 317.649 771.104 317.956 770.659 318.572C770.213 319.187 769.991 320.098 769.991 321.305ZM778.534 321.12C778.534 319.638 778.876 318.46 779.562 317.587C780.247 316.708 781.156 316.269 782.287 316.269C783.447 316.269 784.352 316.679 785.002 317.499L785.081 316.445H786.567V325.726C786.567 326.956 786.201 327.926 785.468 328.635C784.742 329.344 783.763 329.699 782.533 329.699C781.847 329.699 781.176 329.552 780.52 329.259C779.864 328.966 779.363 328.565 779.017 328.055L779.861 327.079C780.558 327.941 781.411 328.371 782.418 328.371C783.209 328.371 783.825 328.149 784.264 327.703C784.709 327.258 784.932 326.631 784.932 325.823V325.005C784.282 325.755 783.394 326.13 782.269 326.13C781.156 326.13 780.253 325.682 779.562 324.785C778.876 323.889 778.534 322.667 778.534 321.12ZM780.168 321.305C780.168 322.377 780.388 323.221 780.828 323.836C781.267 324.446 781.882 324.75 782.673 324.75C783.699 324.75 784.452 324.284 784.932 323.353V319.011C784.434 318.103 783.687 317.649 782.691 317.649C781.9 317.649 781.282 317.956 780.836 318.572C780.391 319.187 780.168 320.098 780.168 321.305ZM792.974 326.13C791.685 326.13 790.636 325.708 789.828 324.865C789.019 324.015 788.615 322.881 788.615 321.463V321.164C788.615 320.221 788.793 319.38 789.151 318.642C789.514 317.898 790.018 317.318 790.663 316.902C791.313 316.48 792.016 316.269 792.772 316.269C794.008 316.269 794.969 316.676 795.655 317.491C796.34 318.305 796.683 319.471 796.683 320.989V321.665H790.241C790.264 322.603 790.537 323.362 791.058 323.942C791.585 324.516 792.253 324.803 793.062 324.803C793.636 324.803 794.122 324.686 794.521 324.451C794.919 324.217 795.268 323.907 795.567 323.52L796.56 324.293C795.763 325.518 794.568 326.13 792.974 326.13ZM792.772 317.605C792.116 317.605 791.565 317.845 791.12 318.326C790.674 318.8 790.399 319.468 790.293 320.329H795.057V320.206C795.01 319.38 794.788 318.742 794.389 318.29C793.991 317.833 793.452 317.605 792.772 317.605Z" fill="black"/>
<rect x="34" y="290" width="150" height="60" fill="#003C7E"/>
<path d="M98.9189 326H97.2227L90.7803 316.139V326H89.084V313.203H90.7803L97.2402 323.108V313.203H98.9189V326ZM101.23 321.157C101.23 320.226 101.412 319.388 101.775 318.644C102.145 317.899 102.654 317.325 103.305 316.921C103.961 316.517 104.708 316.314 105.546 316.314C106.841 316.314 107.887 316.763 108.684 317.659C109.486 318.556 109.888 319.748 109.888 321.236V321.351C109.888 322.276 109.709 323.108 109.352 323.847C109 324.579 108.493 325.15 107.831 325.561C107.175 325.971 106.419 326.176 105.563 326.176C104.274 326.176 103.229 325.728 102.426 324.831C101.629 323.935 101.23 322.748 101.23 321.271V321.157ZM102.865 321.351C102.865 322.405 103.108 323.252 103.595 323.891C104.087 324.529 104.743 324.849 105.563 324.849C106.39 324.849 107.046 324.526 107.532 323.882C108.019 323.231 108.262 322.323 108.262 321.157C108.262 320.114 108.013 319.271 107.515 318.626C107.022 317.976 106.366 317.65 105.546 317.65C104.743 317.65 104.096 317.97 103.604 318.608C103.111 319.247 102.865 320.161 102.865 321.351ZM111.531 321.166C111.531 319.707 111.877 318.535 112.568 317.65C113.26 316.76 114.165 316.314 115.284 316.314C116.397 316.314 117.279 316.695 117.93 317.457V312.5H119.556V326H118.062L117.982 324.98C117.332 325.777 116.427 326.176 115.267 326.176C114.165 326.176 113.266 325.725 112.568 324.822C111.877 323.92 111.531 322.742 111.531 321.289V321.166ZM113.157 321.351C113.157 322.429 113.38 323.272 113.825 323.882C114.271 324.491 114.886 324.796 115.671 324.796C116.702 324.796 117.455 324.333 117.93 323.407V319.039C117.443 318.143 116.696 317.694 115.688 317.694C114.892 317.694 114.271 318.002 113.825 318.617C113.38 319.232 113.157 320.144 113.157 321.351ZM126.033 326.176C124.744 326.176 123.695 325.754 122.887 324.91C122.078 324.061 121.674 322.927 121.674 321.509V321.21C121.674 320.267 121.853 319.426 122.21 318.688C122.573 317.943 123.077 317.363 123.722 316.947C124.372 316.525 125.075 316.314 125.831 316.314C127.067 316.314 128.028 316.722 128.714 317.536C129.399 318.351 129.742 319.517 129.742 321.034V321.711H123.3C123.323 322.648 123.596 323.407 124.117 323.987C124.645 324.562 125.312 324.849 126.121 324.849C126.695 324.849 127.182 324.731 127.58 324.497C127.979 324.263 128.327 323.952 128.626 323.565L129.619 324.339C128.822 325.563 127.627 326.176 126.033 326.176ZM125.831 317.65C125.175 317.65 124.624 317.891 124.179 318.371C123.733 318.846 123.458 319.514 123.353 320.375H128.116V320.252C128.069 319.426 127.847 318.787 127.448 318.336C127.05 317.879 126.511 317.65 125.831 317.65Z" fill="white"/>
<rect x="252" y="290" width="150" height="60" fill="#003C7E"/>
<path d="M316.919 326H315.223L308.78 316.139V326H307.084V313.203H308.78L315.24 323.108V313.203H316.919V326ZM319.23 321.157C319.23 320.226 319.412 319.388 319.775 318.644C320.145 317.899 320.654 317.325 321.305 316.921C321.961 316.517 322.708 316.314 323.546 316.314C324.841 316.314 325.887 316.763 326.684 317.659C327.486 318.556 327.888 319.748 327.888 321.236V321.351C327.888 322.276 327.709 323.108 327.352 323.847C327 324.579 326.493 325.15 325.831 325.561C325.175 325.971 324.419 326.176 323.563 326.176C322.274 326.176 321.229 325.728 320.426 324.831C319.629 323.935 319.23 322.748 319.23 321.271V321.157ZM320.865 321.351C320.865 322.405 321.108 323.252 321.595 323.891C322.087 324.529 322.743 324.849 323.563 324.849C324.39 324.849 325.046 324.526 325.532 323.882C326.019 323.231 326.262 322.323 326.262 321.157C326.262 320.114 326.013 319.271 325.515 318.626C325.022 317.976 324.366 317.65 323.546 317.65C322.743 317.65 322.096 317.97 321.604 318.608C321.111 319.247 320.865 320.161 320.865 321.351ZM329.531 321.166C329.531 319.707 329.877 318.535 330.568 317.65C331.26 316.76 332.165 316.314 333.284 316.314C334.397 316.314 335.279 316.695 335.93 317.457V312.5H337.556V326H336.062L335.982 324.98C335.332 325.777 334.427 326.176 333.267 326.176C332.165 326.176 331.266 325.725 330.568 324.822C329.877 323.92 329.531 322.742 329.531 321.289V321.166ZM331.157 321.351C331.157 322.429 331.38 323.272 331.825 323.882C332.271 324.491 332.886 324.796 333.671 324.796C334.702 324.796 335.455 324.333 335.93 323.407V319.039C335.443 318.143 334.696 317.694 333.688 317.694C332.892 317.694 332.271 318.002 331.825 318.617C331.38 319.232 331.157 320.144 331.157 321.351ZM344.033 326.176C342.744 326.176 341.695 325.754 340.887 324.91C340.078 324.061 339.674 322.927 339.674 321.509V321.21C339.674 320.267 339.853 319.426 340.21 318.688C340.573 317.943 341.077 317.363 341.722 316.947C342.372 316.525 343.075 316.314 343.831 316.314C345.067 316.314 346.028 316.722 346.714 317.536C347.399 318.351 347.742 319.517 347.742 321.034V321.711H341.3C341.323 322.648 341.596 323.407 342.117 323.987C342.645 324.562 343.312 324.849 344.121 324.849C344.695 324.849 345.182 324.731 345.58 324.497C345.979 324.263 346.327 323.952 346.626 323.565L347.619 324.339C346.822 325.563 345.627 326.176 344.033 326.176ZM343.831 317.65C343.175 317.65 342.624 317.891 342.179 318.371C341.733 318.846 341.458 319.514 341.353 320.375H346.116V320.252C346.069 319.426 345.847 318.787 345.448 318.336C345.05 317.879 344.511 317.65 343.831 317.65Z" fill="white"/>
<rect x="470" y="290" width="150" height="60" fill="#003C7E"/>
<path d="M534.919 326H533.223L526.78 316.139V326H525.084V313.203H526.78L533.24 323.108V313.203H534.919V326ZM537.23 321.157C537.23 320.226 537.412 319.388 537.775 318.644C538.145 317.899 538.654 317.325 539.305 316.921C539.961 316.517 540.708 316.314 541.546 316.314C542.841 316.314 543.887 316.763 544.684 317.659C545.486 318.556 545.888 319.748 545.888 321.236V321.351C545.888 322.276 545.709 323.108 545.352 323.847C545 324.579 544.493 325.15 543.831 325.561C543.175 325.971 542.419 326.176 541.563 326.176C540.274 326.176 539.229 325.728 538.426 324.831C537.629 323.935 537.23 322.748 537.23 321.271V321.157ZM538.865 321.351C538.865 322.405 539.108 323.252 539.595 323.891C540.087 324.529 540.743 324.849 541.563 324.849C542.39 324.849 543.046 324.526 543.532 323.882C544.019 323.231 544.262 322.323 544.262 321.157C544.262 320.114 544.013 319.271 543.515 318.626C543.022 317.976 542.366 317.65 541.546 317.65C540.743 317.65 540.096 317.97 539.604 318.608C539.111 319.247 538.865 320.161 538.865 321.351ZM547.531 321.166C547.531 319.707 547.877 318.535 548.568 317.65C549.26 316.76 550.165 316.314 551.284 316.314C552.397 316.314 553.279 316.695 553.93 317.457V312.5H555.556V326H554.062L553.982 324.98C553.332 325.777 552.427 326.176 551.267 326.176C550.165 326.176 549.266 325.725 548.568 324.822C547.877 323.92 547.531 322.742 547.531 321.289V321.166ZM549.157 321.351C549.157 322.429 549.38 323.272 549.825 323.882C550.271 324.491 550.886 324.796 551.671 324.796C552.702 324.796 553.455 324.333 553.93 323.407V319.039C553.443 318.143 552.696 317.694 551.688 317.694C550.892 317.694 550.271 318.002 549.825 318.617C549.38 319.232 549.157 320.144 549.157 321.351ZM562.033 326.176C560.744 326.176 559.695 325.754 558.887 324.91C558.078 324.061 557.674 322.927 557.674 321.509V321.21C557.674 320.267 557.853 319.426 558.21 318.688C558.573 317.943 559.077 317.363 559.722 316.947C560.372 316.525 561.075 316.314 561.831 316.314C563.067 316.314 564.028 316.722 564.714 317.536C565.399 318.351 565.742 319.517 565.742 321.034V321.711H559.3C559.323 322.648 559.596 323.407 560.117 323.987C560.645 324.562 561.312 324.849 562.121 324.849C562.695 324.849 563.182 324.731 563.58 324.497C563.979 324.263 564.327 323.952 564.626 323.565L565.619 324.339C564.822 325.563 563.627 326.176 562.033 326.176ZM561.831 317.65C561.175 317.65 560.624 317.891 560.179 318.371C559.733 318.846 559.458 319.514 559.353 320.375H564.116V320.252C564.069 319.426 563.847 318.787 563.448 318.336C563.05 317.879 562.511 317.65 561.831 317.65Z" fill="white"/>
<rect width="654.817" height="180" fill="#003C7E"/>
<rect width="654.817" height="180" fill="#003C7E"/>
<rect x="0.5" y="0.5" width="899" height="179" stroke="black" stroke-dasharray="5 5"/>
<path d="M765.078 91.5078C764.919 92.8613 764.418 93.9072 763.575 94.6455C762.737 95.3779 761.621 95.7441 760.226 95.7441C758.714 95.7441 757.501 95.2021 756.587 94.1182C755.679 93.0342 755.225 91.584 755.225 89.7676V88.5371C755.225 87.3477 755.436 86.3018 755.858 85.3994C756.286 84.4971 756.889 83.8057 757.668 83.3252C758.448 82.8389 759.35 82.5957 760.375 82.5957C761.735 82.5957 762.825 82.9766 763.645 83.7383C764.465 84.4941 764.943 85.543 765.078 86.8848H763.381C763.235 85.8652 762.915 85.127 762.423 84.6699C761.937 84.2129 761.254 83.9844 760.375 83.9844C759.297 83.9844 758.451 84.3828 757.835 85.1797C757.226 85.9766 756.921 87.1104 756.921 88.5811V89.8203C756.921 91.209 757.211 92.3135 757.791 93.1338C758.372 93.9541 759.183 94.3643 760.226 94.3643C761.164 94.3643 761.881 94.1533 762.379 93.7314C762.883 93.3037 763.217 92.5625 763.381 91.5078H765.078ZM768.901 95.5684H767.275V82.0684H768.901V95.5684ZM771.08 90.7256C771.08 89.7939 771.262 88.9561 771.625 88.2119C771.995 87.4678 772.504 86.8936 773.155 86.4893C773.811 86.085 774.558 85.8828 775.396 85.8828C776.691 85.8828 777.737 86.3311 778.534 87.2275C779.336 88.124 779.738 89.3164 779.738 90.8047V90.9189C779.738 91.8447 779.559 92.6768 779.202 93.415C778.85 94.1475 778.343 94.7188 777.681 95.1289C777.025 95.5391 776.269 95.7441 775.414 95.7441C774.124 95.7441 773.079 95.2959 772.276 94.3994C771.479 93.5029 771.08 92.3164 771.08 90.8398V90.7256ZM772.715 90.9189C772.715 91.9736 772.958 92.8203 773.445 93.459C773.937 94.0977 774.593 94.417 775.414 94.417C776.24 94.417 776.896 94.0947 777.382 93.4502C777.869 92.7998 778.112 91.8916 778.112 90.7256C778.112 89.6826 777.863 88.8389 777.365 88.1943C776.872 87.5439 776.216 87.2188 775.396 87.2188C774.593 87.2188 773.946 87.5381 773.454 88.1768C772.961 88.8154 772.715 89.7295 772.715 90.9189ZM787.648 94.6279C787.015 95.3721 786.086 95.7441 784.862 95.7441C783.848 95.7441 783.075 95.4512 782.541 94.8652C782.014 94.2734 781.747 93.4004 781.742 92.2461V86.0586H783.368V92.2021C783.368 93.6436 783.954 94.3643 785.125 94.3643C786.368 94.3643 787.194 93.9014 787.604 92.9756V86.0586H789.23V95.5684H787.683L787.648 94.6279ZM791.313 90.7344C791.313 89.2754 791.659 88.1035 792.35 87.2188C793.041 86.3281 793.947 85.8828 795.066 85.8828C796.179 85.8828 797.061 86.2637 797.711 87.0254V82.0684H799.337V95.5684H797.843L797.764 94.5488C797.114 95.3457 796.208 95.7441 795.048 95.7441C793.947 95.7441 793.047 95.293 792.35 94.3906C791.659 93.4883 791.313 92.3105 791.313 90.8574V90.7344ZM792.939 90.9189C792.939 91.9971 793.162 92.8408 793.607 93.4502C794.052 94.0596 794.667 94.3643 795.453 94.3643C796.484 94.3643 797.237 93.9014 797.711 92.9756V88.6074C797.225 87.7109 796.478 87.2627 795.47 87.2627C794.673 87.2627 794.052 87.5703 793.607 88.1855C793.162 88.8008 792.939 89.7119 792.939 90.9189Z" fill="black"/>
<path d="M222.699 91.3203V98H220.449V80.9375H226.742C228.609 80.9375 230.07 81.4141 231.125 82.3672C232.188 83.3203 232.719 84.582 232.719 86.1523C232.719 87.8086 232.199 89.0859 231.16 89.9844C230.129 90.875 228.648 91.3203 226.719 91.3203H222.699ZM222.699 89.4805H226.742C227.945 89.4805 228.867 89.1992 229.508 88.6367C230.148 88.0664 230.469 87.2461 230.469 86.1758C230.469 85.1602 230.148 84.3477 229.508 83.7383C228.867 83.1289 227.988 82.8125 226.871 82.7891H222.699V89.4805ZM243.078 96.7461C242.234 97.7383 240.996 98.2344 239.363 98.2344C238.012 98.2344 236.98 97.8438 236.27 97.0625C235.566 96.2734 235.211 95.1094 235.203 93.5703V85.3203H237.371V93.5117C237.371 95.4336 238.152 96.3945 239.715 96.3945C241.371 96.3945 242.473 95.7773 243.02 94.543V85.3203H245.188V98H243.125L243.078 96.7461ZM259.227 91.8008C259.227 93.7383 258.781 95.2969 257.891 96.4766C257 97.6484 255.805 98.2344 254.305 98.2344C252.703 98.2344 251.465 97.668 250.59 96.5352L250.484 98H248.492V80H250.66V86.7148C251.535 85.6289 252.742 85.0859 254.281 85.0859C255.82 85.0859 257.027 85.668 257.902 86.832C258.785 87.9961 259.227 89.5898 259.227 91.6133V91.8008ZM257.059 91.5547C257.059 90.0781 256.773 88.9375 256.203 88.1328C255.633 87.3281 254.812 86.9258 253.742 86.9258C252.312 86.9258 251.285 87.5898 250.66 88.918V94.4023C251.324 95.7305 252.359 96.3945 253.766 96.3945C254.805 96.3945 255.613 95.9922 256.191 95.1875C256.77 94.3828 257.059 93.1719 257.059 91.5547ZM264.324 98H262.156V80H264.324V98ZM270.16 98H267.992V85.3203H270.16V98ZM267.816 81.957C267.816 81.6055 267.922 81.3086 268.133 81.0664C268.352 80.8242 268.672 80.7031 269.094 80.7031C269.516 80.7031 269.836 80.8242 270.055 81.0664C270.273 81.3086 270.383 81.6055 270.383 81.957C270.383 82.3086 270.273 82.6016 270.055 82.8359C269.836 83.0703 269.516 83.1875 269.094 83.1875C268.672 83.1875 268.352 83.0703 268.133 82.8359C267.922 82.6016 267.816 82.3086 267.816 81.957ZM278.727 96.4648C279.5 96.4648 280.176 96.2305 280.754 95.7617C281.332 95.293 281.652 94.707 281.715 94.0039H283.766C283.727 94.7305 283.477 95.4219 283.016 96.0781C282.555 96.7344 281.938 97.2578 281.164 97.6484C280.398 98.0391 279.586 98.2344 278.727 98.2344C277 98.2344 275.625 97.6602 274.602 96.5117C273.586 95.3555 273.078 93.7773 273.078 91.7773V91.4141C273.078 90.1797 273.305 89.082 273.758 88.1211C274.211 87.1602 274.859 86.4141 275.703 85.8828C276.555 85.3516 277.559 85.0859 278.715 85.0859C280.137 85.0859 281.316 85.5117 282.254 86.3633C283.199 87.2148 283.703 88.3203 283.766 89.6797H281.715C281.652 88.8594 281.34 88.1875 280.777 87.6641C280.223 87.1328 279.535 86.8672 278.715 86.8672C277.613 86.8672 276.758 87.2656 276.148 88.0625C275.547 88.8516 275.246 89.9961 275.246 91.4961V91.9062C275.246 93.3672 275.547 94.4922 276.148 95.2812C276.75 96.0703 277.609 96.4648 278.727 96.4648ZM286.637 99.4648H284.773L291.898 80.9375H293.75L286.637 99.4648ZM298.684 91.3203V98H296.434V80.9375H302.727C304.594 80.9375 306.055 81.4141 307.109 82.3672C308.172 83.3203 308.703 84.582 308.703 86.1523C308.703 87.8086 308.184 89.0859 307.145 89.9844C306.113 90.875 304.633 91.3203 302.703 91.3203H298.684ZM298.684 89.4805H302.727C303.93 89.4805 304.852 89.1992 305.492 88.6367C306.133 88.0664 306.453 87.2461 306.453 86.1758C306.453 85.1602 306.133 84.3477 305.492 83.7383C304.852 83.1289 303.973 82.8125 302.855 82.7891H298.684V89.4805ZM317.363 87.2656C317.035 87.2109 316.68 87.1836 316.297 87.1836C314.875 87.1836 313.91 87.7891 313.402 89V98H311.234V85.3203H313.344L313.379 86.7852C314.09 85.6523 315.098 85.0859 316.402 85.0859C316.824 85.0859 317.145 85.1406 317.363 85.25V87.2656ZM321.723 98H319.555V85.3203H321.723V98ZM319.379 81.957C319.379 81.6055 319.484 81.3086 319.695 81.0664C319.914 80.8242 320.234 80.7031 320.656 80.7031C321.078 80.7031 321.398 80.8242 321.617 81.0664C321.836 81.3086 321.945 81.6055 321.945 81.957C321.945 82.3086 321.836 82.6016 321.617 82.8359C321.398 83.0703 321.078 83.1875 320.656 83.1875C320.234 83.1875 319.914 83.0703 319.695 82.8359C319.484 82.6016 319.379 82.3086 319.379 81.957ZM329.387 95.0586L332.527 85.3203H334.742L330.195 98H328.543L323.949 85.3203H326.164L329.387 95.0586ZM344.469 98C344.344 97.75 344.242 97.3047 344.164 96.6641C343.156 97.7109 341.953 98.2344 340.555 98.2344C339.305 98.2344 338.277 97.8828 337.473 97.1797C336.676 96.4688 336.277 95.5703 336.277 94.4844C336.277 93.1641 336.777 92.1406 337.777 91.4141C338.785 90.6797 340.199 90.3125 342.02 90.3125H344.129V89.3164C344.129 88.5586 343.902 87.957 343.449 87.5117C342.996 87.0586 342.328 86.832 341.445 86.832C340.672 86.832 340.023 87.0273 339.5 87.418C338.977 87.8086 338.715 88.2812 338.715 88.8359H336.535C336.535 88.2031 336.758 87.5938 337.203 87.0078C337.656 86.4141 338.266 85.9453 339.031 85.6016C339.805 85.2578 340.652 85.0859 341.574 85.0859C343.035 85.0859 344.18 85.4531 345.008 86.1875C345.836 86.9141 346.266 87.918 346.297 89.1992V95.0352C346.297 96.1992 346.445 97.125 346.742 97.8125V98H344.469ZM340.871 96.3477C341.551 96.3477 342.195 96.1719 342.805 95.8203C343.414 95.4688 343.855 95.0117 344.129 94.4492V91.8477H342.43C339.773 91.8477 338.445 92.625 338.445 94.1797C338.445 94.8594 338.672 95.3906 339.125 95.7734C339.578 96.1562 340.16 96.3477 340.871 96.3477ZM352.637 82.25V85.3203H355.004V86.9961H352.637V94.8594C352.637 95.3672 352.742 95.75 352.953 96.0078C353.164 96.2578 353.523 96.3828 354.031 96.3828C354.281 96.3828 354.625 96.3359 355.062 96.2422V98C354.492 98.1562 353.938 98.2344 353.398 98.2344C352.43 98.2344 351.699 97.9414 351.207 97.3555C350.715 96.7695 350.469 95.9375 350.469 94.8594V86.9961H348.16V85.3203H350.469V82.25H352.637ZM362.809 98.2344C361.09 98.2344 359.691 97.6719 358.613 96.5469C357.535 95.4141 356.996 93.9023 356.996 92.0117V91.6133C356.996 90.3555 357.234 89.2344 357.711 88.25C358.195 87.2578 358.867 86.4844 359.727 85.9297C360.594 85.3672 361.531 85.0859 362.539 85.0859C364.188 85.0859 365.469 85.6289 366.383 86.7148C367.297 87.8008 367.754 89.3555 367.754 91.3789V92.2812H359.164C359.195 93.5312 359.559 94.543 360.254 95.3164C360.957 96.082 361.848 96.4648 362.926 96.4648C363.691 96.4648 364.34 96.3086 364.871 95.9961C365.402 95.6836 365.867 95.2695 366.266 94.7539L367.59 95.7852C366.527 97.418 364.934 98.2344 362.809 98.2344ZM362.539 86.8672C361.664 86.8672 360.93 87.1875 360.336 87.8281C359.742 88.4609 359.375 89.3516 359.234 90.5H365.586V90.3359C365.523 89.2344 365.227 88.3828 364.695 87.7812C364.164 87.1719 363.445 86.8672 362.539 86.8672ZM389.117 92.5859C388.906 94.3906 388.238 95.7852 387.113 96.7695C385.996 97.7461 384.508 98.2344 382.648 98.2344C380.633 98.2344 379.016 97.5117 377.797 96.0664C376.586 94.6211 375.98 92.6875 375.98 90.2656V88.625C375.98 87.0391 376.262 85.6445 376.824 84.4414C377.395 83.2383 378.199 82.3164 379.238 81.6758C380.277 81.0273 381.48 80.7031 382.848 80.7031C384.66 80.7031 386.113 81.2109 387.207 82.2266C388.301 83.2344 388.938 84.6328 389.117 86.4219H386.855C386.66 85.0625 386.234 84.0781 385.578 83.4688C384.93 82.8594 384.02 82.5547 382.848 82.5547C381.41 82.5547 380.281 83.0859 379.461 84.1484C378.648 85.2109 378.242 86.7227 378.242 88.6836V90.3359C378.242 92.1875 378.629 93.6602 379.402 94.7539C380.176 95.8477 381.258 96.3945 382.648 96.3945C383.898 96.3945 384.855 96.1133 385.52 95.5508C386.191 94.9805 386.637 93.9922 386.855 92.5859H389.117ZM394.215 98H392.047V80H394.215V98ZM397.121 91.543C397.121 90.3008 397.363 89.1836 397.848 88.1914C398.34 87.1992 399.02 86.4336 399.887 85.8945C400.762 85.3555 401.758 85.0859 402.875 85.0859C404.602 85.0859 405.996 85.6836 407.059 86.8789C408.129 88.0742 408.664 89.6641 408.664 91.6484V91.8008C408.664 93.0352 408.426 94.1445 407.949 95.1289C407.48 96.1055 406.805 96.8672 405.922 97.4141C405.047 97.9609 404.039 98.2344 402.898 98.2344C401.18 98.2344 399.785 97.6367 398.715 96.4414C397.652 95.2461 397.121 93.6641 397.121 91.6953V91.543ZM399.301 91.8008C399.301 93.207 399.625 94.3359 400.273 95.1875C400.93 96.0391 401.805 96.4648 402.898 96.4648C404 96.4648 404.875 96.0352 405.523 95.1758C406.172 94.3086 406.496 93.0977 406.496 91.543C406.496 90.1523 406.164 89.0273 405.5 88.168C404.844 87.3008 403.969 86.8672 402.875 86.8672C401.805 86.8672 400.941 87.293 400.285 88.1445C399.629 88.9961 399.301 90.2148 399.301 91.8008ZM419.211 96.7461C418.367 97.7383 417.129 98.2344 415.496 98.2344C414.145 98.2344 413.113 97.8438 412.402 97.0625C411.699 96.2734 411.344 95.1094 411.336 93.5703V85.3203H413.504V93.5117C413.504 95.4336 414.285 96.3945 415.848 96.3945C417.504 96.3945 418.605 95.7773 419.152 94.543V85.3203H421.32V98H419.258L419.211 96.7461ZM424.098 91.5547C424.098 89.6094 424.559 88.0469 425.48 86.8672C426.402 85.6797 427.609 85.0859 429.102 85.0859C430.586 85.0859 431.762 85.5938 432.629 86.6094V80H434.797V98H432.805L432.699 96.6406C431.832 97.7031 430.625 98.2344 429.078 98.2344C427.609 98.2344 426.41 97.6328 425.48 96.4297C424.559 95.2266 424.098 93.6562 424.098 91.7188V91.5547ZM426.266 91.8008C426.266 93.2383 426.562 94.3633 427.156 95.1758C427.75 95.9883 428.57 96.3945 429.617 96.3945C430.992 96.3945 431.996 95.7773 432.629 94.543V88.7188C431.98 87.5234 430.984 86.9258 429.641 86.9258C428.578 86.9258 427.75 87.3359 427.156 88.1562C426.562 88.9766 426.266 90.1914 426.266 91.8008Z" fill="white"/>
<line x1="107" y1="520" x2="107" y2="350" stroke="#003C7E" stroke-width="4" stroke-dasharray="10 5"/>
<line x1="184" y1="318" x2="252" y2="318" stroke="#003C7E" stroke-width="4" stroke-dasharray="10 5"/>
<line x1="402" y1="318" x2="470" y2="318" stroke="#003C7E" stroke-width="4" stroke-dasharray="10 5"/>
<line x1="543" y1="290" x2="543" y2="120" stroke="#003C7E" stroke-width="4" stroke-dasharray="10 5"/>
<line x1="325" y1="290" x2="325" y2="120" stroke="#003C7E" stroke-width="4" stroke-dasharray="10 5"/>
<line x1="107" y1="290" x2="107" y2="120" stroke="#003C7E" stroke-width="4" stroke-dasharray="10 5"/>
<line x1="325" y1="520" x2="325" y2="350" stroke="#003C7E" stroke-width="4" stroke-dasharray="10 5"/>
<line x1="543" y1="520" x2="543" y2="350" stroke="#003C7E" stroke-width="4" stroke-dasharray="10 5"/>
<line x1="325.77" y1="521.577" x2="107.77" y2="351.577" stroke="#003C7E" stroke-width="4" stroke-dasharray="10 5"/>
<line x1="543.77" y1="521.577" x2="325.77" y2="351.577" stroke="#003C7E" stroke-width="4" stroke-dasharray="10 5"/>
</svg>
