<svg width="800" height="400" viewBox="0 0 800 400" fill="none" xmlns="http://www.w3.org/2000/svg">
<rect width="800" height="400" fill="white"/>
<circle cx="673" cy="187" r="50" fill="#003C7E"/>
<path d="M689 189H657C655.9 189 655 189.9 655 191V203C655 204.1 655.9 205 657 205H689C690.1 205 691 204.1 691 203V191C691 189.9 690.1 189 689 189ZM663 201C660.8 201 659 199.2 659 197C659 194.8 660.8 193 663 193C665.2 193 667 194.8 667 197C667 199.2 665.2 201 663 201ZM689 169H657C655.9 169 655 169.9 655 171V183C655 184.1 655.9 185 657 185H689C690.1 185 691 184.1 691 183V171C691 169.9 690.1 169 689 169ZM663 181C660.8 181 659 179.2 659 177C659 174.8 660.8 173 663 173C665.2 173 667 174.8 667 177C667 179.2 665.2 181 663 181Z" fill="white"/>
<path d="M635.427 256.296C633.979 255.88 632.925 255.37 632.263 254.767C631.606 254.157 631.278 253.407 631.278 252.517C631.278 251.509 631.68 250.677 632.482 250.021C633.291 249.358 634.34 249.027 635.629 249.027C636.508 249.027 637.29 249.197 637.976 249.537C638.667 249.877 639.2 250.346 639.575 250.943C639.956 251.541 640.146 252.194 640.146 252.903H638.45C638.45 252.13 638.204 251.523 637.712 251.084C637.22 250.639 636.525 250.416 635.629 250.416C634.797 250.416 634.146 250.601 633.678 250.97C633.215 251.333 632.983 251.84 632.983 252.49C632.983 253.012 633.203 253.454 633.643 253.817C634.088 254.175 634.841 254.503 635.901 254.802C636.968 255.101 637.8 255.432 638.397 255.795C639.001 256.152 639.446 256.571 639.733 257.052C640.026 257.532 640.173 258.098 640.173 258.748C640.173 259.785 639.769 260.617 638.96 261.244C638.151 261.865 637.07 262.176 635.717 262.176C634.838 262.176 634.018 262.009 633.256 261.675C632.494 261.335 631.905 260.872 631.489 260.286C631.079 259.7 630.874 259.035 630.874 258.291H632.57C632.57 259.064 632.854 259.677 633.423 260.128C633.997 260.573 634.762 260.796 635.717 260.796C636.607 260.796 637.29 260.614 637.765 260.251C638.239 259.888 638.477 259.393 638.477 258.766C638.477 258.139 638.257 257.655 637.817 257.315C637.378 256.97 636.581 256.63 635.427 256.296ZM647.96 261.06C647.327 261.804 646.398 262.176 645.174 262.176C644.16 262.176 643.387 261.883 642.854 261.297C642.326 260.705 642.06 259.832 642.054 258.678V252.49H643.68V258.634C643.68 260.075 644.266 260.796 645.438 260.796C646.68 260.796 647.506 260.333 647.916 259.407V252.49H649.542V262H647.995L647.96 261.06ZM660.071 257.351C660.071 258.804 659.737 259.973 659.069 260.857C658.401 261.736 657.505 262.176 656.38 262.176C655.179 262.176 654.25 261.751 653.594 260.901L653.515 262H652.021V248.5H653.646V253.536C654.303 252.722 655.208 252.314 656.362 252.314C657.517 252.314 658.422 252.751 659.078 253.624C659.74 254.497 660.071 255.692 660.071 257.21V257.351ZM658.445 257.166C658.445 256.059 658.231 255.203 657.804 254.6C657.376 253.996 656.761 253.694 655.958 253.694C654.886 253.694 654.115 254.192 653.646 255.188V259.302C654.145 260.298 654.921 260.796 655.976 260.796C656.755 260.796 657.361 260.494 657.795 259.891C658.229 259.287 658.445 258.379 658.445 257.166ZM667.665 259.478C667.665 259.038 667.498 258.698 667.164 258.458C666.836 258.212 666.259 258.001 665.433 257.825C664.612 257.649 663.959 257.438 663.473 257.192C662.992 256.946 662.635 256.653 662.4 256.313C662.172 255.974 662.058 255.569 662.058 255.101C662.058 254.321 662.386 253.662 663.042 253.123C663.704 252.584 664.548 252.314 665.573 252.314C666.651 252.314 667.524 252.593 668.192 253.149C668.866 253.706 669.203 254.418 669.203 255.285H667.568C667.568 254.84 667.378 254.456 666.997 254.134C666.622 253.812 666.147 253.65 665.573 253.65C664.981 253.65 664.519 253.779 664.185 254.037C663.851 254.295 663.684 254.632 663.684 255.048C663.684 255.44 663.839 255.736 664.149 255.936C664.46 256.135 665.02 256.325 665.828 256.507C666.643 256.688 667.302 256.905 667.806 257.157C668.31 257.409 668.682 257.714 668.922 258.071C669.168 258.423 669.291 258.854 669.291 259.363C669.291 260.213 668.951 260.896 668.271 261.411C667.592 261.921 666.71 262.176 665.626 262.176C664.864 262.176 664.19 262.041 663.604 261.771C663.019 261.502 662.559 261.127 662.225 260.646C661.896 260.16 661.732 259.636 661.732 259.073H663.358C663.388 259.618 663.604 260.052 664.009 260.374C664.419 260.69 664.958 260.849 665.626 260.849C666.241 260.849 666.733 260.726 667.103 260.479C667.478 260.228 667.665 259.894 667.665 259.478ZM675.224 260.849C675.804 260.849 676.311 260.673 676.744 260.321C677.178 259.97 677.418 259.53 677.465 259.003H679.003C678.974 259.548 678.786 260.066 678.44 260.559C678.095 261.051 677.632 261.443 677.052 261.736C676.478 262.029 675.868 262.176 675.224 262.176C673.929 262.176 672.897 261.745 672.13 260.884C671.368 260.017 670.987 258.833 670.987 257.333V257.061C670.987 256.135 671.157 255.312 671.497 254.591C671.837 253.87 672.323 253.311 672.956 252.912C673.595 252.514 674.348 252.314 675.215 252.314C676.281 252.314 677.166 252.634 677.869 253.272C678.578 253.911 678.956 254.74 679.003 255.76H677.465C677.418 255.145 677.184 254.641 676.762 254.248C676.346 253.85 675.83 253.65 675.215 253.65C674.389 253.65 673.747 253.949 673.29 254.547C672.839 255.139 672.613 255.997 672.613 257.122V257.43C672.613 258.525 672.839 259.369 673.29 259.961C673.741 260.553 674.386 260.849 675.224 260.849ZM685.428 253.949C685.182 253.908 684.915 253.888 684.628 253.888C683.562 253.888 682.838 254.342 682.457 255.25V262H680.831V252.49H682.413L682.439 253.589C682.973 252.739 683.729 252.314 684.707 252.314C685.023 252.314 685.264 252.355 685.428 252.438V253.949ZM688.697 262H687.071V252.49H688.697V262ZM686.939 249.968C686.939 249.704 687.019 249.481 687.177 249.3C687.341 249.118 687.581 249.027 687.897 249.027C688.214 249.027 688.454 249.118 688.618 249.3C688.782 249.481 688.864 249.704 688.864 249.968C688.864 250.231 688.782 250.451 688.618 250.627C688.454 250.803 688.214 250.891 687.897 250.891C687.581 250.891 687.341 250.803 687.177 250.627C687.019 250.451 686.939 250.231 686.939 249.968ZM699.358 257.351C699.358 258.804 699.024 259.973 698.356 260.857C697.688 261.736 696.792 262.176 695.667 262.176C694.466 262.176 693.537 261.751 692.881 260.901L692.802 262H691.308V248.5H692.934V253.536C693.59 252.722 694.495 252.314 695.649 252.314C696.804 252.314 697.709 252.751 698.365 253.624C699.027 254.497 699.358 255.692 699.358 257.21V257.351ZM697.732 257.166C697.732 256.059 697.519 255.203 697.091 254.6C696.663 253.996 696.048 253.694 695.245 253.694C694.173 253.694 693.402 254.192 692.934 255.188V259.302C693.432 260.298 694.208 260.796 695.263 260.796C696.042 260.796 696.648 260.494 697.082 259.891C697.516 259.287 697.732 258.379 697.732 257.166ZM705.361 262.176C704.072 262.176 703.023 261.754 702.215 260.91C701.406 260.061 701.002 258.927 701.002 257.509V257.21C701.002 256.267 701.181 255.426 701.538 254.688C701.901 253.943 702.405 253.363 703.05 252.947C703.7 252.525 704.403 252.314 705.159 252.314C706.396 252.314 707.356 252.722 708.042 253.536C708.728 254.351 709.07 255.517 709.07 257.034V257.711H702.628C702.651 258.648 702.924 259.407 703.445 259.987C703.973 260.562 704.641 260.849 705.449 260.849C706.023 260.849 706.51 260.731 706.908 260.497C707.307 260.263 707.655 259.952 707.954 259.565L708.947 260.339C708.15 261.563 706.955 262.176 705.361 262.176ZM705.159 253.65C704.503 253.65 703.952 253.891 703.507 254.371C703.062 254.846 702.786 255.514 702.681 256.375H707.444V256.252C707.397 255.426 707.175 254.787 706.776 254.336C706.378 253.879 705.839 253.65 705.159 253.65ZM715.557 253.949C715.311 253.908 715.044 253.888 714.757 253.888C713.69 253.888 712.967 254.342 712.586 255.25V262H710.96V252.49H712.542L712.568 253.589C713.102 252.739 713.857 252.314 714.836 252.314C715.152 252.314 715.393 252.355 715.557 252.438V253.949Z" fill="black"/>
<circle cx="400" cy="190" r="50" fill="#003C7E"/>
<path d="M416 192H384C382.9 192 382 192.9 382 194V206C382 207.1 382.9 208 384 208H416C417.1 208 418 207.1 418 206V194C418 192.9 417.1 192 416 192ZM390 204C387.8 204 386 202.2 386 200C386 197.8 387.8 196 390 196C392.2 196 394 197.8 394 200C394 202.2 392.2 204 390 204ZM416 172H384C382.9 172 382 172.9 382 174V186C382 187.1 382.9 188 384 188H416C417.1 188 418 187.1 418 186V174C418 172.9 417.1 172 416 172ZM390 184C387.8 184 386 182.2 386 180C386 177.8 387.8 176 390 176C392.2 176 394 177.8 394 180C394 182.2 392.2 184 390 184Z" fill="white"/>
<path d="M375.987 262V249.203H380.171C381.56 249.203 382.603 249.49 383.3 250.064C384.003 250.639 384.354 251.488 384.354 252.613C384.354 253.211 384.185 253.741 383.845 254.204C383.505 254.661 383.042 255.016 382.456 255.268C383.147 255.461 383.692 255.83 384.091 256.375C384.495 256.914 384.697 257.559 384.697 258.309C384.697 259.457 384.325 260.359 383.581 261.016C382.837 261.672 381.785 262 380.426 262H375.987ZM377.675 256.015V260.62H380.461C381.246 260.62 381.864 260.418 382.315 260.014C382.772 259.604 383.001 259.041 383.001 258.326C383.001 256.785 382.163 256.015 380.487 256.015H377.675ZM377.675 254.661H380.224C380.962 254.661 381.551 254.477 381.99 254.107C382.436 253.738 382.658 253.237 382.658 252.604C382.658 251.901 382.453 251.392 382.043 251.075C381.633 250.753 381.009 250.592 380.171 250.592H377.675V254.661ZM391.544 253.949C391.298 253.908 391.031 253.888 390.744 253.888C389.678 253.888 388.954 254.342 388.573 255.25V262H386.947V252.49H388.529L388.556 253.589C389.089 252.739 389.845 252.314 390.823 252.314C391.14 252.314 391.38 252.355 391.544 252.438V253.949ZM392.44 257.157C392.44 256.226 392.622 255.388 392.985 254.644C393.354 253.899 393.864 253.325 394.515 252.921C395.171 252.517 395.918 252.314 396.756 252.314C398.051 252.314 399.097 252.763 399.894 253.659C400.696 254.556 401.098 255.748 401.098 257.236V257.351C401.098 258.276 400.919 259.108 400.562 259.847C400.21 260.579 399.703 261.15 399.041 261.561C398.385 261.971 397.629 262.176 396.773 262.176C395.484 262.176 394.438 261.728 393.636 260.831C392.839 259.935 392.44 258.748 392.44 257.271V257.157ZM394.075 257.351C394.075 258.405 394.318 259.252 394.805 259.891C395.297 260.529 395.953 260.849 396.773 260.849C397.6 260.849 398.256 260.526 398.742 259.882C399.229 259.231 399.472 258.323 399.472 257.157C399.472 256.114 399.223 255.271 398.725 254.626C398.232 253.976 397.576 253.65 396.756 253.65C395.953 253.65 395.306 253.97 394.813 254.608C394.321 255.247 394.075 256.161 394.075 257.351ZM405.791 257.597L404.771 258.66V262H403.146V248.5H404.771V256.665L405.642 255.619L408.604 252.49H410.581L406.881 256.463L411.012 262H409.104L405.791 257.597ZM416.03 262.176C414.741 262.176 413.692 261.754 412.884 260.91C412.075 260.061 411.671 258.927 411.671 257.509V257.21C411.671 256.267 411.85 255.426 412.207 254.688C412.57 253.943 413.074 253.363 413.719 252.947C414.369 252.525 415.072 252.314 415.828 252.314C417.064 252.314 418.025 252.722 418.711 253.536C419.396 254.351 419.739 255.517 419.739 257.034V257.711H413.297C413.32 258.648 413.593 259.407 414.114 259.987C414.642 260.562 415.31 260.849 416.118 260.849C416.692 260.849 417.179 260.731 417.577 260.497C417.976 260.263 418.324 259.952 418.623 259.565L419.616 260.339C418.819 261.563 417.624 262.176 416.03 262.176ZM415.828 253.65C415.172 253.65 414.621 253.891 414.176 254.371C413.73 254.846 413.455 255.514 413.35 256.375H418.113V256.252C418.066 255.426 417.844 254.787 417.445 254.336C417.047 253.879 416.508 253.65 415.828 253.65ZM426.226 253.949C425.979 253.908 425.713 253.888 425.426 253.888C424.359 253.888 423.636 254.342 423.255 255.25V262H421.629V252.49H423.211L423.237 253.589C423.771 252.739 424.526 252.314 425.505 252.314C425.821 252.314 426.062 252.355 426.226 252.438V253.949Z" fill="black"/>
<circle cx="127" cy="190" r="50" fill="#003C7E"/>
<path d="M133 192V176C133 172.68 130.32 170 127 170C123.68 170 121 172.68 121 176V192C118.58 193.82 117 196.74 117 200C117 205.52 121.48 210 127 210C132.52 210 137 205.52 137 200C137 196.74 135.42 193.82 133 192ZM125 188V176C125 174.9 125.9 174 127 174C128.1 174 129 174.9 129 176V178H127V180H129V182V184H127V186H129V188H125Z" fill="white"/>
<path d="M93.1787 256.99V262H91.4912V249.203H96.2109C97.6113 249.203 98.707 249.561 99.498 250.275C100.295 250.99 100.693 251.937 100.693 253.114C100.693 254.356 100.304 255.314 99.5244 255.988C98.751 256.656 97.6406 256.99 96.1934 256.99H93.1787ZM93.1787 255.61H96.2109C97.1133 255.61 97.8047 255.399 98.2852 254.978C98.7656 254.55 99.0059 253.935 99.0059 253.132C99.0059 252.37 98.7656 251.761 98.2852 251.304C97.8047 250.847 97.1455 250.609 96.3076 250.592H93.1787V255.61ZM108.463 261.06C107.83 261.804 106.901 262.176 105.677 262.176C104.663 262.176 103.89 261.883 103.356 261.297C102.829 260.705 102.562 259.832 102.557 258.678V252.49H104.183V258.634C104.183 260.075 104.769 260.796 105.94 260.796C107.183 260.796 108.009 260.333 108.419 259.407V252.49H110.045V262H108.498L108.463 261.06ZM120.574 257.351C120.574 258.804 120.24 259.973 119.572 260.857C118.904 261.736 118.008 262.176 116.883 262.176C115.682 262.176 114.753 261.751 114.097 260.901L114.018 262H112.523V248.5H114.149V253.536C114.806 252.722 115.711 252.314 116.865 252.314C118.02 252.314 118.925 252.751 119.581 253.624C120.243 254.497 120.574 255.692 120.574 257.21V257.351ZM118.948 257.166C118.948 256.059 118.734 255.203 118.307 254.6C117.879 253.996 117.264 253.694 116.461 253.694C115.389 253.694 114.618 254.192 114.149 255.188V259.302C114.647 260.298 115.424 260.796 116.479 260.796C117.258 260.796 117.864 260.494 118.298 259.891C118.731 259.287 118.948 258.379 118.948 257.166ZM124.397 262H122.771V248.5H124.397V262ZM128.774 262H127.148V252.49H128.774V262ZM127.017 249.968C127.017 249.704 127.096 249.481 127.254 249.3C127.418 249.118 127.658 249.027 127.975 249.027C128.291 249.027 128.531 249.118 128.695 249.3C128.859 249.481 128.941 249.704 128.941 249.968C128.941 250.231 128.859 250.451 128.695 250.627C128.531 250.803 128.291 250.891 127.975 250.891C127.658 250.891 127.418 250.803 127.254 250.627C127.096 250.451 127.017 250.231 127.017 249.968ZM136.922 259.478C136.922 259.038 136.755 258.698 136.421 258.458C136.093 258.212 135.516 258.001 134.689 257.825C133.869 257.649 133.216 257.438 132.729 257.192C132.249 256.946 131.892 256.653 131.657 256.313C131.429 255.974 131.314 255.569 131.314 255.101C131.314 254.321 131.643 253.662 132.299 253.123C132.961 252.584 133.805 252.314 134.83 252.314C135.908 252.314 136.781 252.593 137.449 253.149C138.123 253.706 138.46 254.418 138.46 255.285H136.825C136.825 254.84 136.635 254.456 136.254 254.134C135.879 253.812 135.404 253.65 134.83 253.65C134.238 253.65 133.775 253.779 133.441 254.037C133.107 254.295 132.94 254.632 132.94 255.048C132.94 255.44 133.096 255.736 133.406 255.936C133.717 256.135 134.276 256.325 135.085 256.507C135.899 256.688 136.559 256.905 137.062 257.157C137.566 257.409 137.938 257.714 138.179 258.071C138.425 258.423 138.548 258.854 138.548 259.363C138.548 260.213 138.208 260.896 137.528 261.411C136.849 261.921 135.967 262.176 134.883 262.176C134.121 262.176 133.447 262.041 132.861 261.771C132.275 261.502 131.815 261.127 131.481 260.646C131.153 260.16 130.989 259.636 130.989 259.073H132.615C132.645 259.618 132.861 260.052 133.266 260.374C133.676 260.69 134.215 260.849 134.883 260.849C135.498 260.849 135.99 260.726 136.359 260.479C136.734 260.228 136.922 259.894 136.922 259.478ZM142.292 253.642C143.013 252.757 143.95 252.314 145.104 252.314C147.114 252.314 148.128 253.448 148.146 255.716V262H146.52V255.707C146.514 255.021 146.355 254.515 146.045 254.187C145.74 253.858 145.263 253.694 144.612 253.694C144.085 253.694 143.622 253.835 143.224 254.116C142.825 254.397 142.515 254.767 142.292 255.224V262H140.666V248.5H142.292V253.642ZM154.526 262.176C153.237 262.176 152.188 261.754 151.38 260.91C150.571 260.061 150.167 258.927 150.167 257.509V257.21C150.167 256.267 150.346 255.426 150.703 254.688C151.066 253.943 151.57 253.363 152.215 252.947C152.865 252.525 153.568 252.314 154.324 252.314C155.561 252.314 156.521 252.722 157.207 253.536C157.893 254.351 158.235 255.517 158.235 257.034V257.711H151.793C151.816 258.648 152.089 259.407 152.61 259.987C153.138 260.562 153.806 260.849 154.614 260.849C155.188 260.849 155.675 260.731 156.073 260.497C156.472 260.263 156.82 259.952 157.119 259.565L158.112 260.339C157.315 261.563 156.12 262.176 154.526 262.176ZM154.324 253.65C153.668 253.65 153.117 253.891 152.672 254.371C152.227 254.846 151.951 255.514 151.846 256.375H156.609V256.252C156.562 255.426 156.34 254.787 155.941 254.336C155.543 253.879 155.004 253.65 154.324 253.65ZM164.722 253.949C164.476 253.908 164.209 253.888 163.922 253.888C162.855 253.888 162.132 254.342 161.751 255.25V262H160.125V252.49H161.707L161.733 253.589C162.267 252.739 163.022 252.314 164.001 252.314C164.317 252.314 164.558 252.355 164.722 252.438V253.949Z" fill="black"/>
<path d="M345.707 190.707C346.098 190.317 346.098 189.683 345.707 189.293L339.343 182.929C338.953 182.538 338.319 182.538 337.929 182.929C337.538 183.319 337.538 183.953 337.929 184.343L343.586 190L337.929 195.657C337.538 196.047 337.538 196.681 337.929 197.071C338.319 197.462 338.953 197.462 339.343 197.071L345.707 190.707ZM181 191H183.44V189H181V191ZM185.393 191H190.274V189H185.393V191ZM192.226 191H197.107V189H192.226V191ZM199.06 191H203.94V189H199.06V191ZM205.893 191H210.774V189H205.893V191ZM212.726 191H217.607V189H212.726V191ZM219.56 191H224.44V189H219.56V191ZM226.393 191H231.274V189H226.393V191ZM233.226 191H238.107V189H233.226V191ZM240.06 191H244.94V189H240.06V191ZM246.893 191H251.774V189H246.893V191ZM253.726 191H258.607V189H253.726V191ZM260.56 191H263V189H260.56V191ZM263 191H265.44V189H263V191ZM267.393 191H272.274V189H267.393V191ZM274.226 191H279.107V189H274.226V191ZM281.06 191H285.94V189H281.06V191ZM287.893 191H292.774V189H287.893V191ZM294.726 191H299.607V189H294.726V191ZM301.56 191H306.44V189H301.56V191ZM308.393 191H313.274V189H308.393V191ZM315.226 191H320.107V189H315.226V191ZM322.06 191H326.94V189H322.06V191ZM328.893 191H333.774V189H328.893V191ZM335.726 191H340.607V189H335.726V191ZM342.56 191H345V189H342.56V191ZM346.414 191.414C347.195 190.633 347.195 189.367 346.414 188.586L333.686 175.858C332.905 175.077 331.639 175.077 330.858 175.858C330.077 176.639 330.077 177.905 330.858 178.686L342.172 190L330.858 201.314C330.077 202.095 330.077 203.361 330.858 204.142C331.639 204.923 332.905 204.923 333.686 204.142L346.414 191.414ZM181 192H183.44V188H181V192ZM185.393 192H190.274V188H185.393V192ZM192.226 192H197.107V188H192.226V192ZM199.06 192H203.94V188H199.06V192ZM205.893 192H210.774V188H205.893V192ZM212.726 192H217.607V188H212.726V192ZM219.56 192H224.44V188H219.56V192ZM226.393 192H231.274V188H226.393V192ZM233.226 192H238.107V188H233.226V192ZM240.06 192H244.94V188H240.06V192ZM246.893 192H251.774V188H246.893V192ZM253.726 192H258.607V188H253.726V192ZM260.56 192H263V188H260.56V192ZM263 192H265.44V188H263V192ZM267.393 192H272.274V188H267.393V192ZM274.226 192H279.107V188H274.226V192ZM281.06 192H285.94V188H281.06V192ZM287.893 192H292.774V188H287.893V192ZM294.726 192H299.607V188H294.726V192ZM301.56 192H306.44V188H301.56V192ZM308.393 192H313.274V188H308.393V192ZM315.226 192H320.107V188H315.226V192ZM322.06 192H326.94V188H322.06V192ZM328.893 192H333.774V188H328.893V192ZM335.726 192H340.607V188H335.726V192ZM342.56 192H345V188H342.56V192Z" fill="#828282"/>
<path d="M247.612 180.384C247.612 181.509 247.355 182.416 246.84 183.104C246.325 183.793 245.628 184.137 244.748 184.137C243.85 184.137 243.144 183.852 242.629 183.282V186.844H241.364V176.604H242.52L242.581 177.424C243.096 176.786 243.812 176.467 244.728 176.467C245.616 176.467 246.318 176.802 246.833 177.472C247.353 178.142 247.612 179.074 247.612 180.268V180.384ZM246.348 180.24C246.348 179.406 246.17 178.748 245.814 178.265C245.459 177.782 244.971 177.54 244.352 177.54C243.586 177.54 243.012 177.88 242.629 178.559V182.093C243.007 182.767 243.586 183.104 244.365 183.104C244.971 183.104 245.452 182.865 245.808 182.387C246.168 181.904 246.348 181.188 246.348 180.24ZM253.792 183.269C253.3 183.847 252.577 184.137 251.625 184.137C250.837 184.137 250.235 183.909 249.82 183.453C249.41 182.993 249.203 182.314 249.198 181.416V176.604H250.463V181.382C250.463 182.503 250.919 183.063 251.83 183.063C252.796 183.063 253.439 182.703 253.758 181.983V176.604H255.022V184H253.819L253.792 183.269ZM263.212 180.384C263.212 181.514 262.952 182.423 262.433 183.111C261.913 183.795 261.216 184.137 260.341 184.137C259.407 184.137 258.684 183.806 258.174 183.146L258.112 184H256.95V173.5H258.215V177.417C258.725 176.784 259.429 176.467 260.327 176.467C261.225 176.467 261.929 176.806 262.439 177.485C262.954 178.164 263.212 179.094 263.212 180.274V180.384ZM261.947 180.24C261.947 179.379 261.781 178.714 261.448 178.244C261.116 177.775 260.637 177.54 260.013 177.54C259.179 177.54 258.579 177.927 258.215 178.702V181.901C258.602 182.676 259.206 183.063 260.026 183.063C260.632 183.063 261.104 182.829 261.441 182.359C261.779 181.89 261.947 181.184 261.947 180.24ZM266.186 184H264.921V173.5H266.186V184ZM269.59 184H268.325V176.604H269.59V184ZM268.223 174.642C268.223 174.437 268.284 174.263 268.407 174.122C268.535 173.981 268.722 173.91 268.968 173.91C269.214 173.91 269.401 173.981 269.528 174.122C269.656 174.263 269.72 174.437 269.72 174.642C269.72 174.847 269.656 175.018 269.528 175.154C269.401 175.291 269.214 175.359 268.968 175.359C268.722 175.359 268.535 175.291 268.407 175.154C268.284 175.018 268.223 174.847 268.223 174.642ZM275.927 182.038C275.927 181.696 275.797 181.432 275.537 181.245C275.282 181.054 274.833 180.89 274.19 180.753C273.552 180.616 273.044 180.452 272.666 180.261C272.292 180.069 272.014 179.841 271.832 179.577C271.654 179.313 271.565 178.998 271.565 178.634C271.565 178.028 271.821 177.515 272.331 177.096C272.846 176.676 273.502 176.467 274.3 176.467C275.138 176.467 275.817 176.683 276.337 177.116C276.861 177.549 277.123 178.103 277.123 178.777H275.852C275.852 178.431 275.703 178.132 275.407 177.882C275.116 177.631 274.746 177.506 274.3 177.506C273.84 177.506 273.479 177.606 273.22 177.807C272.96 178.007 272.83 178.269 272.83 178.593C272.83 178.898 272.951 179.128 273.192 179.283C273.434 179.438 273.869 179.586 274.498 179.728C275.131 179.869 275.644 180.037 276.036 180.233C276.428 180.429 276.717 180.666 276.904 180.944C277.096 181.218 277.191 181.553 277.191 181.949C277.191 182.61 276.927 183.141 276.398 183.542C275.87 183.938 275.184 184.137 274.341 184.137C273.748 184.137 273.224 184.032 272.769 183.822C272.313 183.613 271.955 183.321 271.695 182.947C271.44 182.569 271.312 182.161 271.312 181.724H272.577C272.6 182.147 272.769 182.485 273.083 182.735C273.402 182.981 273.821 183.104 274.341 183.104C274.819 183.104 275.202 183.009 275.489 182.817C275.781 182.621 275.927 182.362 275.927 182.038ZM280.104 177.499C280.664 176.811 281.393 176.467 282.291 176.467C283.854 176.467 284.643 177.349 284.656 179.112V184H283.392V179.105C283.387 178.572 283.264 178.178 283.022 177.923C282.785 177.668 282.414 177.54 281.908 177.54C281.498 177.54 281.138 177.649 280.828 177.868C280.518 178.087 280.277 178.374 280.104 178.729V184H278.839V173.5H280.104V177.499Z" fill="black"/>
<path d="M454.293 189.293C453.902 189.683 453.902 190.317 454.293 190.707L460.657 197.071C461.047 197.462 461.681 197.462 462.071 197.071C462.462 196.681 462.462 196.047 462.071 195.657L456.414 190L462.071 184.343C462.462 183.953 462.462 183.319 462.071 182.929C461.681 182.538 461.047 182.538 460.657 182.929L454.293 189.293ZM618.707 190.707C619.098 190.317 619.098 189.683 618.707 189.293L612.343 182.929C611.953 182.538 611.319 182.538 610.929 182.929C610.538 183.319 610.538 183.953 610.929 184.343L616.586 190L610.929 195.657C610.538 196.047 610.538 196.681 610.929 197.071C611.319 197.462 611.953 197.462 612.343 197.071L618.707 190.707ZM455 191H457.426V189H455V191ZM459.366 191H464.217V189H459.366V191ZM466.158 191H471.009V189H466.158V191ZM472.949 191H477.801V189H472.949V191ZM479.741 191H484.592V189H479.741V191ZM486.533 191H491.384V189H486.533V191ZM493.324 191H498.176V189H493.324V191ZM500.116 191H504.967V189H500.116V191ZM506.908 191H511.759V189H506.908V191ZM513.699 191H518.551V189H513.699V191ZM520.491 191H525.342V189H520.491V191ZM527.283 191H532.134V189H527.283V191ZM534.074 191H536.5V189H534.074V191ZM536.5 191H538.926V189H536.5V191ZM540.866 191H545.717V189H540.866V191ZM547.658 191H552.509V189H547.658V191ZM554.449 191H559.301V189H554.449V191ZM561.241 191H566.092V189H561.241V191ZM568.033 191H572.884V189H568.033V191ZM574.824 191H579.676V189H574.824V191ZM581.616 191H586.467V189H581.616V191ZM588.408 191H593.259V189H588.408V191ZM595.199 191H600.051V189H595.199V191ZM601.991 191H606.842V189H601.991V191ZM608.783 191H613.634V189H608.783V191ZM615.574 191H618V189H615.574V191ZM453.586 188.586C452.805 189.367 452.805 190.633 453.586 191.414L466.314 204.142C467.095 204.923 468.361 204.923 469.142 204.142C469.923 203.361 469.923 202.095 469.142 201.314L457.828 190L469.142 178.686C469.923 177.905 469.923 176.639 469.142 175.858C468.361 175.077 467.095 175.077 466.314 175.858L453.586 188.586ZM619.414 191.414C620.195 190.633 620.195 189.367 619.414 188.586L606.686 175.858C605.905 175.077 604.639 175.077 603.858 175.858C603.077 176.639 603.077 177.905 603.858 178.686L615.172 190L603.858 201.314C603.077 202.095 603.077 203.361 603.858 204.142C604.639 204.923 605.905 204.923 606.686 204.142L619.414 191.414ZM455 192H457.426V188H455V192ZM459.366 192H464.217V188H459.366V192ZM466.158 192H471.009V188H466.158V192ZM472.949 192H477.801V188H472.949V192ZM479.741 192H484.592V188H479.741V192ZM486.533 192H491.384V188H486.533V192ZM493.324 192H498.176V188H493.324V192ZM500.116 192H504.967V188H500.116V192ZM506.908 192H511.759V188H506.908V192ZM513.699 192H518.551V188H513.699V192ZM520.491 192H525.342V188H520.491V192ZM527.283 192H532.134V188H527.283V192ZM534.074 192H536.5V188H534.074V192ZM536.5 192H538.926V188H536.5V192ZM540.866 192H545.717V188H540.866V192ZM547.658 192H552.509V188H547.658V192ZM554.449 192H559.301V188H554.449V192ZM561.241 192H566.092V188H561.241V192ZM568.033 192H572.884V188H568.033V192ZM574.824 192H579.676V188H574.824V192ZM581.616 192H586.467V188H581.616V192ZM588.408 192H593.259V188H588.408V192ZM595.199 192H600.051V188H595.199V192ZM601.991 192H606.842V188H601.991V192ZM608.783 192H613.634V188H608.783V192ZM615.574 192H618V188H615.574V192Z" fill="#828282"/>
<path d="M521.112 180.384C521.112 181.509 520.855 182.416 520.34 183.104C519.825 183.793 519.128 184.137 518.248 184.137C517.35 184.137 516.644 183.852 516.129 183.282V186.844H514.864V176.604H516.02L516.081 177.424C516.596 176.786 517.312 176.467 518.228 176.467C519.116 176.467 519.818 176.802 520.333 177.472C520.853 178.142 521.112 179.074 521.112 180.268V180.384ZM519.848 180.24C519.848 179.406 519.67 178.748 519.314 178.265C518.959 177.782 518.471 177.54 517.852 177.54C517.086 177.54 516.512 177.88 516.129 178.559V182.093C516.507 182.767 517.086 183.104 517.865 183.104C518.471 183.104 518.952 182.865 519.308 182.387C519.668 181.904 519.848 181.188 519.848 180.24ZM527.292 183.269C526.8 183.847 526.077 184.137 525.125 184.137C524.337 184.137 523.735 183.909 523.32 183.453C522.91 182.993 522.703 182.314 522.698 181.416V176.604H523.963V181.382C523.963 182.503 524.419 183.063 525.33 183.063C526.296 183.063 526.939 182.703 527.258 181.983V176.604H528.522V184H527.319L527.292 183.269ZM536.712 180.384C536.712 181.514 536.452 182.423 535.933 183.111C535.413 183.795 534.716 184.137 533.841 184.137C532.907 184.137 532.184 183.806 531.674 183.146L531.612 184H530.45V173.5H531.715V177.417C532.225 176.784 532.929 176.467 533.827 176.467C534.725 176.467 535.429 176.806 535.939 177.485C536.454 178.164 536.712 179.094 536.712 180.274V180.384ZM535.447 180.24C535.447 179.379 535.281 178.714 534.948 178.244C534.616 177.775 534.137 177.54 533.513 177.54C532.679 177.54 532.079 177.927 531.715 178.702V181.901C532.102 182.676 532.706 183.063 533.526 183.063C534.132 183.063 534.604 182.829 534.941 182.359C535.279 181.89 535.447 181.184 535.447 180.24ZM539.686 184H538.421V173.5H539.686V184ZM543.09 184H541.825V176.604H543.09V184ZM541.723 174.642C541.723 174.437 541.784 174.263 541.907 174.122C542.035 173.981 542.222 173.91 542.468 173.91C542.714 173.91 542.901 173.981 543.028 174.122C543.156 174.263 543.22 174.437 543.22 174.642C543.22 174.847 543.156 175.018 543.028 175.154C542.901 175.291 542.714 175.359 542.468 175.359C542.222 175.359 542.035 175.291 541.907 175.154C541.784 175.018 541.723 174.847 541.723 174.642ZM549.427 182.038C549.427 181.696 549.297 181.432 549.037 181.245C548.782 181.054 548.333 180.89 547.69 180.753C547.052 180.616 546.544 180.452 546.166 180.261C545.792 180.069 545.514 179.841 545.332 179.577C545.154 179.313 545.065 178.998 545.065 178.634C545.065 178.028 545.321 177.515 545.831 177.096C546.346 176.676 547.002 176.467 547.8 176.467C548.638 176.467 549.317 176.683 549.837 177.116C550.361 177.549 550.623 178.103 550.623 178.777H549.352C549.352 178.431 549.203 178.132 548.907 177.882C548.616 177.631 548.246 177.506 547.8 177.506C547.34 177.506 546.979 177.606 546.72 177.807C546.46 178.007 546.33 178.269 546.33 178.593C546.33 178.898 546.451 179.128 546.692 179.283C546.934 179.438 547.369 179.586 547.998 179.728C548.631 179.869 549.144 180.037 549.536 180.233C549.928 180.429 550.217 180.666 550.404 180.944C550.596 181.218 550.691 181.553 550.691 181.949C550.691 182.61 550.427 183.141 549.898 183.542C549.37 183.938 548.684 184.137 547.841 184.137C547.248 184.137 546.724 184.032 546.269 183.822C545.813 183.613 545.455 183.321 545.195 182.947C544.94 182.569 544.812 182.161 544.812 181.724H546.077C546.1 182.147 546.269 182.485 546.583 182.735C546.902 182.981 547.321 183.104 547.841 183.104C548.319 183.104 548.702 183.009 548.989 182.817C549.281 182.621 549.427 182.362 549.427 182.038ZM553.604 177.499C554.164 176.811 554.893 176.467 555.791 176.467C557.354 176.467 558.143 177.349 558.156 179.112V184H556.892V179.105C556.887 178.572 556.764 178.178 556.522 177.923C556.285 177.668 555.914 177.54 555.408 177.54C554.998 177.54 554.638 177.649 554.328 177.868C554.018 178.087 553.777 178.374 553.604 178.729V184H552.339V173.5H553.604V177.499Z" fill="black"/>
<path d="M511.371 203.038C511.371 202.696 511.241 202.432 510.981 202.245C510.726 202.054 510.277 201.89 509.635 201.753C508.997 201.616 508.489 201.452 508.11 201.261C507.737 201.069 507.459 200.841 507.276 200.577C507.099 200.313 507.01 199.998 507.01 199.634C507.01 199.028 507.265 198.515 507.775 198.096C508.29 197.676 508.947 197.467 509.744 197.467C510.583 197.467 511.262 197.683 511.781 198.116C512.305 198.549 512.567 199.103 512.567 199.777H511.296C511.296 199.431 511.148 199.132 510.852 198.882C510.56 198.631 510.191 198.506 509.744 198.506C509.284 198.506 508.924 198.606 508.664 198.807C508.404 199.007 508.274 199.269 508.274 199.593C508.274 199.898 508.395 200.128 508.637 200.283C508.878 200.438 509.313 200.586 509.942 200.728C510.576 200.869 511.089 201.037 511.48 201.233C511.872 201.429 512.162 201.666 512.349 201.944C512.54 202.218 512.636 202.553 512.636 202.949C512.636 203.61 512.371 204.141 511.843 204.542C511.314 204.938 510.628 205.137 509.785 205.137C509.193 205.137 508.669 205.032 508.213 204.822C507.757 204.613 507.399 204.321 507.14 203.947C506.884 203.569 506.757 203.161 506.757 202.724H508.021C508.044 203.147 508.213 203.485 508.527 203.735C508.846 203.981 509.266 204.104 509.785 204.104C510.264 204.104 510.646 204.009 510.934 203.817C511.225 203.621 511.371 203.362 511.371 203.038ZM518.85 204.269C518.357 204.847 517.635 205.137 516.683 205.137C515.894 205.137 515.293 204.909 514.878 204.453C514.468 203.993 514.26 203.314 514.256 202.416V197.604H515.52V202.382C515.52 203.503 515.976 204.063 516.888 204.063C517.854 204.063 518.496 203.703 518.815 202.983V197.604H520.08V205H518.877L518.85 204.269ZM528.27 201.384C528.27 202.514 528.01 203.423 527.49 204.111C526.971 204.795 526.273 205.137 525.398 205.137C524.464 205.137 523.742 204.806 523.231 204.146L523.17 205H522.008V194.5H523.272V198.417C523.783 197.784 524.487 197.467 525.385 197.467C526.283 197.467 526.987 197.806 527.497 198.485C528.012 199.164 528.27 200.094 528.27 201.274V201.384ZM527.005 201.24C527.005 200.379 526.839 199.714 526.506 199.244C526.173 198.775 525.695 198.54 525.07 198.54C524.236 198.54 523.637 198.927 523.272 199.702V202.901C523.66 203.676 524.264 204.063 525.084 204.063C525.69 204.063 526.162 203.829 526.499 203.359C526.836 202.89 527.005 202.184 527.005 201.24ZM534.176 203.038C534.176 202.696 534.046 202.432 533.786 202.245C533.531 202.054 533.082 201.89 532.439 201.753C531.801 201.616 531.293 201.452 530.915 201.261C530.541 201.069 530.263 200.841 530.081 200.577C529.903 200.313 529.814 199.998 529.814 199.634C529.814 199.028 530.07 198.515 530.58 198.096C531.095 197.676 531.751 197.467 532.549 197.467C533.387 197.467 534.066 197.683 534.586 198.116C535.11 198.549 535.372 199.103 535.372 199.777H534.101C534.101 199.431 533.952 199.132 533.656 198.882C533.365 198.631 532.995 198.506 532.549 198.506C532.089 198.506 531.729 198.606 531.469 198.807C531.209 199.007 531.079 199.269 531.079 199.593C531.079 199.898 531.2 200.128 531.441 200.283C531.683 200.438 532.118 200.586 532.747 200.728C533.381 200.869 533.893 201.037 534.285 201.233C534.677 201.429 534.966 201.666 535.153 201.944C535.345 202.218 535.44 202.553 535.44 202.949C535.44 203.61 535.176 204.141 534.647 204.542C534.119 204.938 533.433 205.137 532.59 205.137C531.997 205.137 531.473 205.032 531.018 204.822C530.562 204.613 530.204 204.321 529.944 203.947C529.689 203.569 529.562 203.161 529.562 202.724H530.826C530.849 203.147 531.018 203.485 531.332 203.735C531.651 203.981 532.07 204.104 532.59 204.104C533.068 204.104 533.451 204.009 533.738 203.817C534.03 203.621 534.176 203.362 534.176 203.038ZM540.055 204.104C540.506 204.104 540.9 203.968 541.237 203.694C541.575 203.421 541.761 203.079 541.798 202.669H542.994C542.971 203.093 542.826 203.496 542.557 203.879C542.288 204.262 541.928 204.567 541.477 204.795C541.03 205.023 540.556 205.137 540.055 205.137C539.048 205.137 538.245 204.802 537.648 204.132C537.056 203.457 536.76 202.537 536.76 201.37V201.158C536.76 200.438 536.892 199.798 537.156 199.237C537.421 198.677 537.799 198.242 538.291 197.932C538.788 197.622 539.373 197.467 540.048 197.467C540.877 197.467 541.565 197.715 542.112 198.212C542.664 198.709 542.958 199.354 542.994 200.146H541.798C541.761 199.668 541.579 199.276 541.251 198.971C540.927 198.661 540.526 198.506 540.048 198.506C539.405 198.506 538.906 198.738 538.551 199.203C538.2 199.663 538.024 200.331 538.024 201.206V201.445C538.024 202.298 538.2 202.954 538.551 203.414C538.902 203.874 539.403 204.104 540.055 204.104ZM547.991 198.738C547.8 198.706 547.592 198.69 547.369 198.69C546.54 198.69 545.977 199.044 545.681 199.75V205H544.416V197.604H545.646L545.667 198.458C546.082 197.797 546.67 197.467 547.431 197.467C547.677 197.467 547.864 197.499 547.991 197.562V198.738ZM550.534 205H549.27V197.604H550.534V205ZM549.167 195.642C549.167 195.437 549.229 195.263 549.352 195.122C549.479 194.981 549.666 194.91 549.912 194.91C550.158 194.91 550.345 194.981 550.473 195.122C550.6 195.263 550.664 195.437 550.664 195.642C550.664 195.847 550.6 196.018 550.473 196.154C550.345 196.291 550.158 196.359 549.912 196.359C549.666 196.359 549.479 196.291 549.352 196.154C549.229 196.018 549.167 195.847 549.167 195.642ZM558.826 201.384C558.826 202.514 558.566 203.423 558.047 204.111C557.527 204.795 556.83 205.137 555.955 205.137C555.021 205.137 554.298 204.806 553.788 204.146L553.727 205H552.564V194.5H553.829V198.417C554.34 197.784 555.044 197.467 555.941 197.467C556.839 197.467 557.543 197.806 558.054 198.485C558.569 199.164 558.826 200.094 558.826 201.274V201.384ZM557.562 201.24C557.562 200.379 557.395 199.714 557.062 199.244C556.73 198.775 556.251 198.54 555.627 198.54C554.793 198.54 554.194 198.927 553.829 199.702V202.901C554.216 203.676 554.82 204.063 555.641 204.063C556.247 204.063 556.718 203.829 557.056 203.359C557.393 202.89 557.562 202.184 557.562 201.24ZM563.495 205.137C562.492 205.137 561.677 204.809 561.048 204.152C560.419 203.492 560.104 202.61 560.104 201.507V201.274C560.104 200.541 560.243 199.887 560.521 199.312C560.804 198.734 561.196 198.283 561.697 197.959C562.203 197.631 562.75 197.467 563.338 197.467C564.299 197.467 565.047 197.784 565.58 198.417C566.113 199.05 566.38 199.957 566.38 201.138V201.664H561.369C561.387 202.393 561.599 202.983 562.005 203.435C562.415 203.881 562.935 204.104 563.563 204.104C564.01 204.104 564.388 204.013 564.698 203.831C565.008 203.649 565.279 203.407 565.512 203.106L566.284 203.708C565.664 204.66 564.735 205.137 563.495 205.137ZM563.338 198.506C562.827 198.506 562.399 198.693 562.053 199.066C561.706 199.436 561.492 199.955 561.41 200.625H565.115V200.529C565.079 199.887 564.906 199.39 564.596 199.039C564.286 198.684 563.867 198.506 563.338 198.506Z" fill="black"/>
</svg>
